<svg xmlns="http://www.w3.org/2000/svg" viewBox="0 0 192 192">
  <!-- Background -->
  <rect width="192" height="192" rx="40" fill="#1a3a5c"/>
  <!-- Road (vertical strip) -->
  <rect x="82" y="20" width="28" height="152" rx="6" fill="#334155"/>
  <!-- Road dashes -->
  <rect x="93" y="28"  width="6" height="24" rx="2" fill="#f59e0b"/>
  <rect x="93" y="70"  width="6" height="24" rx="2" fill="#f59e0b"/>
  <rect x="93" y="112" width="6" height="24" rx="2" fill="#f59e0b"/>
  <rect x="93" y="154" width="6" height="14" rx="2" fill="#f59e0b"/>
  <!-- Location pin -->
  <circle cx="96" cy="88" r="34" fill="#f59e0b"/>
  <path d="M96 54 C76 54 62 68 62 85 C62 106 96 136 96 136 C96 136 130 106 130 85 C130 68 116 54 96 54Z" fill="white"/>
  <circle cx="96" cy="84" r="14" fill="#1a3a5c"/>
</svg>
